<svg width="79" height="79" viewBox="0 0 79 79" fill="none" xmlns="http://www.w3.org/2000/svg">
<path d="M40.029 58.923H15.2521V22.2961L36.2858 3.99955L56.8148 21.5462V44.5427C56.8148 45.1935 57.3422 45.7218 57.9939 45.7218C58.6455 45.7218 59.173 45.1935 59.173 44.5427V23.5617L66.8458 30.1199C67.0682 30.3093 67.3402 30.4021 67.6114 30.4021C67.9439 30.4021 68.2749 30.2614 68.5083 29.9894C68.932 29.4942 68.8731 28.7505 68.3778 28.3268L37.0451 1.54701C36.6002 1.16655 35.9454 1.17048 35.5052 1.5533L4.82725 28.2388C4.33596 28.6664 4.28408 29.4108 4.7117 29.9021C5.13932 30.3934 5.88294 30.4445 6.37502 30.0177L12.8939 24.347V60.1014C12.8939 60.7522 13.4214 61.2805 14.073 61.2805H40.029C40.6807 61.2805 41.2081 60.7522 41.2081 60.1014C41.2081 59.4505 40.6807 58.923 40.029 58.923Z" fill="#E89F71"/>
<path d="M72.6855 71.3704L45.732 40.7664C46.0613 37.5521 45.2084 34.9518 43.2197 33.2382C40.8009 31.1543 38.5772 31.5505 35.2128 32.1479C34.7718 32.2265 34.3049 32.3098 33.8065 32.3932C32.537 32.6062 31.4664 31.3548 30.303 29.8219C29.4792 28.7364 28.767 27.8001 27.6547 28.0926C26.5715 28.3787 26.3192 29.6144 26.1675 30.7495C25.497 35.7772 25.8177 42.7622 28.925 45.9026C31.4672 48.4809 34.9777 48.8425 36.7464 48.8425C36.9641 48.8425 37.1434 48.8362 37.3029 48.8291L68.1963 75.8605C69.1529 76.8045 70.3391 77.3454 71.4537 77.3446C71.4624 77.3446 71.4718 77.3446 71.4805 77.3446C72.2485 77.3391 72.941 77.0608 73.4323 76.5609C74.6735 75.2953 74.3433 73.022 72.6855 71.3704ZM28.4722 31.3107C29.5947 32.7886 31.4546 35.1798 34.194 34.7191C34.701 34.635 35.1766 34.5501 35.6247 34.4707C38.9568 33.8773 40.1862 33.7373 41.6798 35.0257C43.0916 36.2425 43.6567 38.1236 43.3824 40.6076L37.2055 46.4717C36.1168 46.5188 32.7925 46.4662 30.6025 44.2463C28.3095 41.9266 27.8929 35.9713 28.4722 31.3107ZM44.4334 42.8605L46.8843 45.6432L42.3841 50.1418L39.4591 47.5824L44.4334 42.8605ZM71.7493 74.9085C71.7006 74.9573 71.5866 74.9816 71.4545 74.9856C71.0898 74.9856 70.4546 74.7749 69.8006 74.1335L44.163 51.6982L48.4463 47.4165L70.9428 72.9591C70.9617 72.9803 70.9813 73.0015 71.0018 73.0212C71.8098 73.8151 71.9466 74.7081 71.7493 74.9085Z" fill="#E89F71"/>
</svg>
