<svg width="70" height="79" viewBox="0 0 70 79" fill="none" xmlns="http://www.w3.org/2000/svg">
<path d="M39.9003 11.8283V8.26361H43.2219C43.87 8.26361 44.4371 7.6965 44.4371 7.04837V1.21524C44.4371 0.56711 43.87 0 43.2219 0H29.0442C28.396 0 27.8289 0.56711 27.8289 1.21524V7.04837C27.8289 7.6965 28.396 8.26361 29.0442 8.26361H32.3658V11.8283C24.5073 12.7195 17.5399 16.3652 12.2739 21.7122L10.8966 20.335L13.1651 18.0665C13.6512 17.5804 13.6512 16.8513 13.1651 16.3652L8.46615 11.6663C7.98005 11.1802 7.25091 11.1802 6.76482 11.6663L0.364571 17.9045C-0.121524 18.3906 -0.121524 19.1197 0.364571 19.6058L5.06349 24.3047C5.30653 24.5478 5.63059 24.6288 5.95466 24.6288C6.27872 24.6288 6.60278 24.5478 6.84583 24.3047L9.19529 21.9553L10.7346 23.4946C5.87364 29.2467 2.95708 36.7001 2.95708 44.8017C2.95708 63.1113 17.864 78.0182 36.1735 78.0182C54.4831 78.0182 69.39 63.1113 69.39 44.8017C69.309 27.7884 56.4275 13.6917 39.9003 11.8283ZM5.95466 21.7932L2.95708 18.7146L7.49396 14.1778L10.4915 17.1753L8.70919 18.9577C8.46615 19.2007 8.14208 19.5248 7.81802 19.8489L5.95466 21.7932ZM33.581 5.83314H30.2594V2.43047H42.0067V5.83314H38.685C38.0369 5.83314 37.4698 6.40025 37.4698 7.04837V11.6663C37.0647 11.6663 36.5786 11.6663 36.1735 11.6663C35.7685 11.6663 35.2824 11.6663 34.8773 11.6663V7.04837C34.7963 6.31923 34.2292 5.83314 33.581 5.83314ZM36.0925 75.5877C19.1602 75.5877 5.30653 61.815 5.30653 44.8017C5.30653 27.7884 19.0792 14.0157 36.0925 14.0157C36.7407 14.0157 37.3888 14.0157 38.0369 14.0967C38.361 14.0967 38.685 14.1778 39.0091 14.1778C54.6451 15.636 66.8785 28.8416 66.8785 44.8017C66.8785 61.815 53.1058 75.5877 36.0925 75.5877Z" fill="#E89F71"/>
<path d="M53.5919 24.8726C53.5109 24.7916 53.4299 24.7106 53.3489 24.6296C48.731 20.6598 42.7358 18.3104 36.1736 18.3104C21.5097 18.3104 9.6814 30.2197 9.6814 44.8025C9.6814 59.3854 21.5097 71.3757 36.0925 71.3757C50.6754 71.3757 62.5847 59.4664 62.5847 44.8835C62.6657 36.863 59.101 29.7336 53.5919 24.8726ZM36.0925 68.9452C22.806 68.9452 12.0309 58.1701 12.0309 44.8835C12.0309 31.5969 22.806 20.8219 36.0925 20.8219C41.6826 20.8219 46.7866 22.7662 50.8374 25.9258L37.7129 40.9948C37.2268 40.8327 36.6596 40.6707 36.1736 40.6707C33.9051 40.6707 32.0417 42.5341 32.0417 44.8025C32.0417 47.071 33.9051 48.9343 36.1736 48.9343C38.442 48.9343 40.2243 47.071 40.2243 44.8025C40.2243 43.9924 39.9813 43.1822 39.5762 42.5341L52.7818 27.3841C57.3997 31.759 60.2352 37.9162 60.2352 44.8025C60.2352 58.0891 49.3791 68.9452 36.0925 68.9452ZM37.7939 44.8025C37.7939 45.7747 37.0647 46.5038 36.0925 46.5038C35.1203 46.5038 34.3912 45.7747 34.3912 44.8025C34.3912 43.9113 35.1203 43.1012 36.0925 43.1012C37.0647 43.1012 37.7939 43.9113 37.7939 44.8025Z" fill="#E89F71"/>
</svg>
