<svg width="67" height="70" viewBox="0 0 67 70" fill="none" xmlns="http://www.w3.org/2000/svg">
<path d="M64.5547 59.0051L39.3894 32.9332L54.7844 17.5382L57.5834 20.3373C57.708 20.4621 57.8563 20.5606 58.0196 20.6271C58.1828 20.6936 58.3578 20.7268 58.5341 20.7246H58.6837C58.8811 20.7014 59.0706 20.6339 59.2383 20.5272C59.4059 20.4205 59.5473 20.2774 59.6519 20.1085L65.3909 10.9278C65.5504 10.6716 65.6172 10.3686 65.5804 10.0691C65.5435 9.76958 65.4052 9.49175 65.1885 9.28182L61.1747 5.26805C60.9632 5.05619 60.686 4.92251 60.3885 4.88892C60.091 4.85533 59.7909 4.92384 59.5375 5.0832L50.3569 10.8222C50.1886 10.9272 50.0461 11.0688 49.94 11.2364C49.834 11.404 49.767 11.5934 49.7442 11.7904C49.7214 11.9875 49.7432 12.1871 49.8081 12.3746C49.8731 12.562 49.9794 12.7324 50.1192 12.8731L52.9183 15.6722L37.5586 31.0319L25.8341 18.8938C26.8533 16.5598 27.1912 13.985 26.8087 11.467C26.4262 8.94909 25.3389 6.59081 23.6725 4.6648C22.0061 2.73879 19.8287 1.3237 17.3919 0.583107C14.9552 -0.157488 12.3585 -0.193344 9.90225 0.479683C9.68117 0.54043 9.47973 0.657696 9.31774 0.81994C9.15575 0.982184 9.0388 1.18381 8.9784 1.40498C8.918 1.62615 8.91623 1.85924 8.97327 2.0813C9.03031 2.30336 9.14419 2.50673 9.3037 2.67142L14.7962 8.40161L13.3615 13.454L8.29145 14.7303L2.80772 9.05297C2.64822 8.88837 2.44861 8.76814 2.22855 8.70409C2.00848 8.64004 1.77553 8.63437 1.55261 8.68766C1.32969 8.74095 1.12448 8.85135 0.957169 9.008C0.789859 9.16465 0.66621 9.36216 0.598385 9.5811C-0.112826 11.8947 -0.191583 14.3565 0.370296 16.7108C0.932176 19.0652 2.11419 21.2261 3.79356 22.9691C5.63891 24.886 8.01262 26.2108 10.6129 26.775C13.2131 27.3393 15.9224 27.1175 18.3963 26.1379L29.7863 37.924L22.7446 44.9657L20.8609 43.082C20.6133 42.8348 20.2778 42.6959 19.9279 42.6959C19.578 42.6959 19.2424 42.8348 18.9949 43.082L0.82724 61.2144C0.579987 61.462 0.441108 61.7976 0.441108 62.1475C0.441108 62.4974 0.579987 62.8329 0.82724 63.0805L6.46061 68.7139C6.70817 68.9611 7.04375 69.1 7.39364 69.1C7.74352 69.1 8.0791 68.9611 8.32666 68.7139L26.4591 50.6519C26.7063 50.4043 26.8452 50.0687 26.8452 49.7189C26.8452 49.369 26.7063 49.0334 26.4591 48.7858L24.5754 46.867L31.6171 39.8252L57.1433 66.2317C57.6152 66.7244 58.1805 67.1182 58.8061 67.3902C59.4317 67.6622 60.1053 67.807 60.7874 67.816H60.8754C62.2247 67.8187 63.5209 67.2907 64.4843 66.3461C65.4623 65.3794 66.0186 64.0652 66.0318 62.6901C66.0449 61.315 65.514 59.9904 64.5547 59.0051ZM60.048 7.87348L62.583 10.4085L58.2788 17.2918L53.1648 12.1777L60.048 7.87348ZM7.39364 65.9676L3.62632 62.1827L19.8927 45.9163L23.66 49.6836L7.39364 65.9676ZM62.6007 64.4712C62.1179 64.9403 61.4693 65.1998 60.7962 65.193C60.13 65.178 59.497 64.8994 59.0358 64.4184L19.655 23.6293C19.4611 23.4309 19.2097 23.2986 18.9363 23.2512C18.663 23.2038 18.3816 23.2437 18.1322 23.3652C16.0898 24.3413 13.7919 24.6497 11.5643 24.2468C9.33677 23.844 7.2925 22.7503 5.72123 21.1207C4.65205 20.011 3.83019 18.6873 3.30979 17.2369C2.78939 15.7864 2.58227 14.2422 2.7021 12.7059L6.95353 17.1069C7.11552 17.2743 7.31892 17.3959 7.54308 17.4593C7.76724 17.5226 8.00417 17.5256 8.22984 17.4678L14.7786 15.8218C14.9994 15.7692 15.2028 15.6605 15.3693 15.5063C15.5358 15.3521 15.6598 15.1576 15.7293 14.9416L17.5777 8.42802C17.641 8.20614 17.6451 7.97154 17.5895 7.7476C17.5339 7.52366 17.4206 7.31821 17.2608 7.1517L13.0006 2.75063C14.9034 2.66718 16.7947 3.08553 18.4848 3.96373C20.1749 4.84194 21.6043 6.14911 22.6298 7.75414C23.6552 9.35918 24.2406 11.2056 24.3272 13.1083C24.4137 15.011 23.9985 16.903 23.1231 18.5945C23.0037 18.8326 22.9592 19.1013 22.9953 19.3652C23.0314 19.6291 23.1465 19.876 23.3255 20.0732L62.6535 60.836C63.1233 61.3242 63.3813 61.9782 63.3714 62.6557C63.3615 63.3332 63.0845 63.9793 62.6007 64.4536V64.4712Z" fill="#E89F71"/>
</svg>
