<svg width="162" height="32" viewBox="0 0 162 32" fill="none" xmlns="http://www.w3.org/2000/svg">
<path d="M23.1194 6.39307C22.4236 6.39307 21.8585 6.92298 21.7895 7.6032H0V7.87326H21.7895C21.8578 8.54839 22.4231 9.08084 23.1194 9.08084C23.8613 9.08084 24.4622 8.4796 24.4622 7.73823C24.4622 6.99432 23.8613 6.39307 23.1194 6.39307Z" fill="#030405"/>
<path d="M161.914 7.6032H140.124C140.055 6.92298 139.491 6.39307 138.795 6.39307C138.053 6.39307 137.451 6.99432 137.451 7.73823C137.451 8.4796 138.053 9.08084 138.795 9.08084C139.491 9.08084 140.056 8.54839 140.124 7.87326H161.914V7.6032Z" fill="#030405"/>
<path d="M28.7686 25.5718H29.4485V28.1984L31.9439 25.5718H32.7808L30.8767 27.5462L32.8346 30.1295H32.0318L30.4082 28.0405L29.4485 29.029V30.1295H28.7686V25.5718Z" fill="#231F20"/>
<path d="M36.9547 31.3397L37.1822 30.8021C37.4033 30.9167 37.6046 30.9677 37.8963 30.9677C38.3013 30.9677 38.5581 30.7563 38.8307 30.1142L36.7598 25.5718H37.5085L39.1678 29.3729L40.6307 25.5718H41.3537L39.4396 30.2798C39.0519 31.2225 38.6114 31.5689 37.9238 31.5689C37.5437 31.5689 37.2619 31.49 36.9547 31.3397Z" fill="#231F20"/>
<path d="M48.1396 27.8112L46.4217 25.5718H47.197L48.5467 27.3348L49.8959 25.5718H50.6539L48.9258 27.7933L50.7249 30.1295H49.9403L48.5289 28.2698L47.1083 30.1295H46.3496L48.1396 27.8112Z" fill="#231F20"/>
<path d="M55.9395 25.5718H56.6184V27.5386H59.2458V25.5718H59.9258V30.1295H59.2458V28.1398H56.6184V30.1295H55.9395V25.5718Z" fill="#231F20"/>
<path d="M65.5293 25.5718H66.2088V29.1793L68.9154 25.5718H69.5775V30.1295H68.8986V26.522L66.1823 30.1295H65.5293V25.5718Z" fill="#231F20"/>
<path d="M84.708 25.5718H85.3505L87.0531 27.9691L88.7537 25.5718H89.4069V30.1295H88.719V26.6571L87.0366 28.9653L85.3684 26.6571V30.1295H84.708V25.5718Z" fill="#231F20"/>
<path d="M97.9224 27.6812C97.8426 26.8533 97.3672 26.1475 96.4669 26.1475C95.6825 26.1475 95.0833 26.7998 94.986 27.6812H97.9224ZM94.2979 27.9539C94.2979 26.6316 95.2252 25.5718 96.4863 25.5718C97.834 25.5718 98.6113 26.6495 98.6113 27.9895C98.6113 28.0507 98.6113 28.122 98.6021 28.2264H94.986C95.0833 29.1894 95.7892 29.7448 96.5918 29.7448C97.2175 29.7448 97.6595 29.4875 98.0273 29.1003L98.4515 29.4799C97.993 29.992 97.4381 30.3333 96.5744 30.3333C95.3218 30.3333 94.2979 29.3754 94.2979 27.9539Z" fill="#231F20"/>
<path d="M107.829 29.6735C107.829 28.7207 107.114 27.9538 106.198 27.9538C105.255 27.9538 104.583 28.7207 104.583 29.6735C104.583 30.6263 105.298 31.3931 106.215 31.3931C107.158 31.3931 107.829 30.6263 107.829 29.6735ZM103.888 29.4365C103.888 27.964 104.001 26.5501 105.589 26.1705L108.129 25.5718L108.261 26.145L105.793 26.7564C104.848 26.9934 104.532 27.5029 104.461 28.3793C104.777 27.8392 105.377 27.3883 106.347 27.3883C107.538 27.3883 108.534 28.4048 108.534 29.6557C108.534 30.9269 107.547 31.9995 106.198 31.9995C104.813 31.9995 103.888 31.0212 103.888 29.4365Z" fill="#231F20"/>
<path d="M117.103 27.6812C117.023 26.8533 116.546 26.1475 115.647 26.1475C114.864 26.1475 114.263 26.7998 114.166 27.6812H117.103ZM113.478 27.9539C113.478 26.6316 114.404 25.5718 115.666 25.5718C117.015 25.5718 117.79 26.6495 117.79 27.9895C117.79 28.0507 117.79 28.122 117.781 28.2264H114.166C114.263 29.1894 114.97 29.7448 115.771 29.7448C116.397 29.7448 116.838 29.4875 117.207 29.1003L117.631 29.4799C117.173 29.992 116.618 30.3333 115.754 30.3333C114.501 30.3333 113.478 29.3754 113.478 27.9539Z" fill="#231F20"/>
<path d="M121.469 30.1295L121.546 29.5486C121.635 29.5741 121.794 29.6098 121.873 29.6098C122.42 29.6098 122.879 29.3729 122.879 25.9488V25.5718H126.106V30.1295H125.428V26.1705H123.522V26.2749C123.522 29.8314 122.879 30.2009 122.014 30.2009C121.865 30.2009 121.609 30.1652 121.469 30.1295Z" fill="#231F20"/>
<path d="M132.971 29.5308C133.65 29.5308 134.065 29.2404 134.065 28.6646C134.065 28.1398 133.641 27.8647 132.944 27.8647H131.738V29.5308H132.971ZM131.058 25.5718H131.738V27.2813H132.953C133.94 27.2813 134.753 27.6863 134.753 28.6494C134.753 29.5589 134.073 30.1295 133.032 30.1295H131.058V25.5718Z" fill="#231F20"/>
<path d="M77.8047 26.9169C77.8047 27.6583 77.2037 28.2596 76.4613 28.2596C75.7194 28.2596 75.1182 27.6583 75.1182 26.9169C75.1182 26.173 75.7194 25.5718 76.4613 25.5718C77.2037 25.5718 77.8047 26.173 77.8047 26.9169Z" fill="#030405"/>
<path fill-rule="evenodd" clip-rule="evenodd" d="M86.2562 0.909496V7.47478H95.1727V8.35374H86.2562V13.8413C86.2562 14.5827 86.2858 15.0311 86.3446 15.1891C86.3747 15.268 86.4167 15.3394 86.471 15.4056C86.5255 15.4693 86.5996 15.5228 86.6936 15.5661C86.7874 15.612 86.9087 15.6476 87.0572 15.6706C87.2057 15.696 87.3983 15.7088 87.6357 15.7088H95.1727V16.6183H81.5117V16.1597H82.0908C82.2487 16.1597 82.4146 16.1419 82.5873 16.1088C82.7606 16.0731 82.9216 16.0221 83.0699 15.9534C83.2181 15.8846 83.3516 15.7928 83.4703 15.6858C83.5891 15.5763 83.678 15.4489 83.7373 15.3012C83.8364 15.0439 83.8859 14.5037 83.8859 13.6834V2.88902C83.8859 2.36675 83.8609 1.93877 83.8115 1.60758C83.762 1.27639 83.6831 1.05219 83.5745 0.932447C83.2777 0.606348 82.783 0.443288 82.0908 0.443288H81.5117V0H95.1727V0.937547C94.9195 0.919714 91.1408 0.909496 90.8262 0.909496H86.2562Z" fill="#030405"/>
<path fill-rule="evenodd" clip-rule="evenodd" d="M104.711 7.93082C104.889 7.89516 106.461 7.8493 106.624 7.80089C107.223 7.60982 107.724 7.35504 108.125 7.02895C108.526 6.7003 108.826 6.31562 109.024 5.86979C109.222 5.42395 109.322 4.94498 109.322 4.42781C109.322 3.91319 109.234 3.44186 109.061 3.0113C108.888 2.58075 108.645 2.2088 108.333 1.89798C108.02 1.58462 107.646 1.3426 107.21 1.17191C106.874 1.03689 106.508 0.955368 106.112 0.924797C105.995 0.914606 105.876 0.909496 105.754 0.909496C105.635 0.909496 105.509 0.914606 105.374 0.924797L99.0928 0.443288V0H105.15C106.051 0 106.817 0.0254628 107.445 0.081511C108.074 0.135012 108.618 0.231823 109.079 0.369396C109.539 0.509517 109.936 0.695511 110.267 0.927347C110.599 1.15918 110.914 1.45215 111.21 1.80882C111.795 2.51197 112.087 3.33233 112.087 4.27241C112.087 5.29911 111.752 6.19078 111.084 6.94234C110.416 7.69389 109.383 8.22125 107.987 8.52951L111.765 13.6503C112.16 14.2133 112.519 14.6693 112.84 15.0209C113.161 15.3725 113.478 15.6476 113.79 15.8489C114.101 16.0527 114.432 16.2005 114.783 16.2947C115.135 16.389 115.543 16.4604 116.007 16.5113V16.9699H111.556L106.112 9.60716L104.711 7.93082Z" fill="#030405"/>
<path fill-rule="evenodd" clip-rule="evenodd" d="M57.905 0V3.29412C56.6653 2.46104 55.7894 1.94896 55.1782 1.63815C55.1288 1.60758 53.7546 0.950287 52.8458 0.970668C52.4303 0.980859 52.0423 1.042 51.6811 1.18721C51.3201 1.32988 51.0082 1.52095 50.7461 1.75788C50.4842 1.99736 50.2763 2.2674 50.1229 2.57567C49.9695 2.88138 49.8929 3.19984 49.8929 3.52593C49.8929 3.82401 49.9497 4.10427 50.0636 4.37177C50.1772 4.63927 50.3902 4.91949 50.702 5.20992C51.0138 5.5029 51.437 5.82136 51.9715 6.16784C52.5055 6.51432 53.1987 6.91687 54.0499 7.37036C55.594 8.19324 56.653 8.83013 57.2275 9.28616C57.8013 9.732 58.2412 10.2594 58.5487 10.8683C58.8555 11.4772 59.0088 12.1141 59.0088 12.7765C59.0088 13.4006 58.8794 13.9917 58.6226 14.5522C58.3646 15.1101 58.003 15.6043 57.5376 16.0273C57.0721 16.4553 56.517 16.789 55.8732 17.0387C55.2294 17.2858 54.5252 17.4106 53.7622 17.4106C53.5151 17.4106 53.3098 17.4081 53.1457 17.403C52.9824 17.3979 52.8038 17.3775 52.6107 17.3418C52.4178 17.3061 52.1845 17.2476 51.9119 17.166C51.6393 17.0871 51.2709 16.975 50.8049 16.8323C50.4085 16.71 50.087 16.6158 49.8388 16.5444C49.5915 16.4731 49.4129 16.4374 49.3036 16.4374C49.096 16.4374 48.9321 16.5011 48.8134 16.6285C48.6944 16.7533 48.6058 17.0157 48.5459 17.4106H48.0998V14.1828C49.4213 15.049 51.0564 15.8591 51.0564 15.8591C51.7796 16.2438 52.5918 16.4374 53.4932 16.4374C54.0083 16.4374 54.4735 16.3635 54.8896 16.2132C55.3058 16.0655 55.6546 15.8693 55.9369 15.6222C56.2194 15.3725 56.4373 15.0846 56.5906 14.7534C56.7442 14.4222 56.8209 14.0783 56.8209 13.7216C56.8209 13.3064 56.707 12.8911 56.4795 12.4758C56.252 12.0606 55.901 11.6708 55.4263 11.3039C55.3665 11.2657 55.2083 11.1689 54.9512 11.0135L54.016 10.4581L52.8211 9.7473C52.3908 9.48999 51.975 9.23778 51.5751 8.99575C51.1738 8.75373 50.8103 8.52953 50.4834 8.32317C50.1573 8.11427 49.9201 7.9512 49.7711 7.83146C49.1782 7.3576 48.7263 6.83533 48.4152 6.2672C48.1034 5.69908 47.9482 5.06728 47.9482 4.37432C47.9482 3.77308 48.0718 3.20494 48.3192 2.67758C48.5666 2.14767 48.9056 1.68656 49.3362 1.28912C49.7668 0.894239 50.2788 0.580862 50.8722 0.349026C51.4658 0.114643 52.1136 0 52.816 0C53.6868 0 54.6261 0.214012 55.635 0.647112C56.1096 0.843281 56.4309 0.940098 56.599 0.940098C56.8072 0.940098 56.9807 0.878931 57.119 0.756644C57.2576 0.634356 57.3664 0.382147 57.4454 0H57.905Z" fill="#030405"/>
<path fill-rule="evenodd" clip-rule="evenodd" d="M78.5728 0V1.03181H71.6827V13.742C71.6827 14.7713 71.7912 15.4081 72.0085 15.6553C72.3152 15.9916 72.7952 16.1597 73.4474 16.1597H74.0265V16.6183H66.953V16.1597H67.5466C68.2489 16.1597 68.7485 15.9457 69.0448 15.5228C69.2232 15.2732 69.3123 14.6821 69.3123 13.742V1.03181H62.332V0H78.5728Z" fill="#030405"/>
<path d="M44.8521 16.0068C44.4666 15.6502 44.0414 14.9292 43.5762 13.8388L37.7898 0H37.3592L31.5142 13.691C30.9995 14.8884 30.5343 15.6859 30.1188 16.0807C29.9211 16.2769 29.4707 16.4349 28.7686 16.5546V17.0157H34.0065V16.5546C33.205 16.5164 32.6856 16.3966 32.4484 16.1979C32.2109 16.0119 32.092 15.7852 32.092 15.5177C32.092 15.1814 32.2305 14.7025 32.5075 14.0783L33.3492 12.1191H35.4791L35.8974 11.1332H33.7731L36.9149 3.82147L41.0839 13.8413C41.41 14.6133 41.5728 15.1814 41.5728 15.5457C41.5728 15.6859 41.5455 15.8107 41.4915 15.9253C41.4372 16.0374 41.3455 16.1393 41.2171 16.2285C41.0882 16.3177 40.9157 16.3915 40.6982 16.4501C40.4803 16.5113 40.2083 16.5444 39.8822 16.5546V17.0157H46.4395V16.5546C45.7473 16.5062 45.2182 16.3228 44.8521 16.0068Z" fill="#030405"/>
<path d="M132.757 16.0068C132.372 15.6502 131.946 14.9292 131.482 13.8388L125.695 0H125.264L119.419 13.691C118.905 14.8884 118.44 15.6859 118.024 16.0807C117.826 16.2769 117.376 16.4349 116.674 16.5546V17.0157H121.912V16.5546C121.11 16.5164 120.591 16.3966 120.353 16.1979C120.116 16.0119 119.997 15.7852 119.997 15.5177C119.997 15.1814 120.136 14.7025 120.413 14.0783L121.254 12.1191H123.431L123.85 11.1332H121.678L124.819 3.82147L128.989 13.8413C129.315 14.6133 129.478 15.1814 129.478 15.5457C129.478 15.6859 129.451 15.8107 129.397 15.9253C129.342 16.0374 129.251 16.1393 129.122 16.2285C128.994 16.3177 128.821 16.3915 128.603 16.4501C128.385 16.5113 128.114 16.5444 127.787 16.5546V17.0157H134.345V16.5546C133.652 16.5062 133.123 16.3228 132.757 16.0068Z" fill="#030405"/>
</svg>
